<mxfile host="drawio-plugin" modified="2023-12-31T09:48:58.305Z" agent="5.0 (Windows NT 6.2; Win64; x64) AppleWebKit/537.36 (KHTML, like Gecko) Chrome/104.0.5112.102 Safari/537.36" etag="gZQ7auePoRE_O0ZE_CGZ" version="20.5.3" type="embed"><diagram id="YEFkTtRuYfPOV7th7SUD" name="Page-1"><mxGraphModel dx="632" dy="563" grid="1" gridSize="10" guides="1" tooltips="1" connect="1" arrows="1" fold="1" page="1" pageScale="1" pageWidth="850" pageHeight="1100" math="0" shadow="0"><root><mxCell id="0"/><mxCell id="1" parent="0"/><mxCell id="2" value="Iterable" style="rounded=0;whiteSpace=wrap;html=1;fillColor=#0000FF;fontSize=23;" parent="1" vertex="1"><mxGeometry x="210" y="10" width="180" height="30" as="geometry"/></mxCell><mxCell id="3" value="&lt;font style=&quot;font-size: 20px;&quot;&gt;Collection&lt;/font&gt;" style="rounded=0;whiteSpace=wrap;html=1;fillColor=#0000FF;" parent="1" vertex="1"><mxGeometry x="240" y="70.00000000000006" width="120" height="30" as="geometry"/></mxCell><mxCell id="4" value="&lt;font style=&quot;font-size: 15px;&quot;&gt;List&lt;/font&gt;" style="rounded=0;whiteSpace=wrap;html=1;fillColor=#0000FF;" parent="1" vertex="1"><mxGeometry x="20" y="160" width="130" height="30" as="geometry"/></mxCell><mxCell id="5" value="&lt;font style=&quot;font-size: 15px;&quot;&gt;Queue&lt;/font&gt;" style="rounded=0;whiteSpace=wrap;html=1;fillColor=#0000FF;" parent="1" vertex="1"><mxGeometry x="240" y="160.00000000000006" width="120" height="30" as="geometry"/></mxCell><mxCell id="6" value="&lt;font style=&quot;font-size: 15px;&quot;&gt;Set&lt;/font&gt;" style="rounded=0;whiteSpace=wrap;html=1;fillColor=#0000FF;" parent="1" vertex="1"><mxGeometry x="425" y="160.00000000000006" width="120" height="30" as="geometry"/></mxCell><mxCell id="7" value="" style="endArrow=none;html=1;rounded=0;exitX=0.455;exitY=-0.126;exitDx=0;exitDy=0;exitPerimeter=0;" parent="1" source="4" edge="1"><mxGeometry width="50" height="50" relative="1" as="geometry"><mxPoint x="110" y="120" as="sourcePoint"/><mxPoint x="480" y="160" as="targetPoint"/><Array as="points"><mxPoint x="79" y="120"/><mxPoint x="190" y="120"/><mxPoint x="370" y="120"/><mxPoint x="480" y="120"/></Array></mxGeometry></mxCell><mxCell id="8" value="" style="endArrow=classic;html=1;rounded=0;entryX=0.5;entryY=1;entryDx=0;entryDy=0;exitX=0.5;exitY=0;exitDx=0;exitDy=0;" parent="1" source="5" target="3" edge="1"><mxGeometry width="50" height="50" relative="1" as="geometry"><mxPoint x="260" y="160" as="sourcePoint"/><mxPoint x="310" y="110" as="targetPoint"/></mxGeometry></mxCell><mxCell id="9" value="" style="endArrow=classic;html=1;rounded=0;exitX=0.5;exitY=0;exitDx=0;exitDy=0;entryX=0.5;entryY=1;entryDx=0;entryDy=0;" parent="1" source="3" target="2" edge="1"><mxGeometry width="50" height="50" relative="1" as="geometry"><mxPoint x="260" y="90" as="sourcePoint"/><mxPoint x="310" y="40" as="targetPoint"/></mxGeometry></mxCell><mxCell id="10" value="PriorityQueue" style="rounded=0;whiteSpace=wrap;html=1;fillColor=#008a00;fontColor=#ffffff;strokeColor=#005700;" parent="1" vertex="1"><mxGeometry x="310" y="240" width="120" height="30" as="geometry"/></mxCell><mxCell id="11" value="HashSet" style="rounded=0;whiteSpace=wrap;html=1;fillColor=#008a00;fontColor=#ffffff;strokeColor=#005700;" parent="1" vertex="1"><mxGeometry x="530" y="230" width="120" height="30" as="geometry"/></mxCell><mxCell id="12" value="LinkedHashSet" style="rounded=0;whiteSpace=wrap;html=1;fillColor=#008a00;fontColor=#ffffff;strokeColor=#005700;" parent="1" vertex="1"><mxGeometry x="530" y="320" width="120" height="30" as="geometry"/></mxCell><mxCell id="13" value="ArrayList" style="rounded=0;whiteSpace=wrap;html=1;fillColor=#008a00;fontColor=#ffffff;strokeColor=#005700;" parent="1" vertex="1"><mxGeometry x="60" y="270" width="120" height="30" as="geometry"/></mxCell><mxCell id="14" value="&lt;font style=&quot;font-size: 15px;&quot;&gt;Deque&lt;/font&gt;" style="rounded=0;whiteSpace=wrap;html=1;fillColor=#0000FF;" parent="1" vertex="1"><mxGeometry x="240" y="320.00000000000006" width="120" height="30" as="geometry"/></mxCell><mxCell id="15" value="LinkedList" style="rounded=0;whiteSpace=wrap;html=1;fillColor=#008a00;fontColor=#ffffff;strokeColor=#005700;" parent="1" vertex="1"><mxGeometry x="60" y="360" width="120" height="30" as="geometry"/></mxCell><mxCell id="16" value="Vector" style="rounded=0;whiteSpace=wrap;html=1;fillColor=#008a00;fontColor=#ffffff;strokeColor=#005700;" parent="1" vertex="1"><mxGeometry x="60" y="430" width="120" height="30" as="geometry"/></mxCell><mxCell id="17" value="Stack" style="rounded=0;whiteSpace=wrap;html=1;fillColor=#008a00;fontColor=#ffffff;strokeColor=#005700;" parent="1" vertex="1"><mxGeometry x="60" y="520" width="120" height="30" as="geometry"/></mxCell><mxCell id="18" value="&lt;font color=&quot;#f0f0f0&quot;&gt;Array&lt;/font&gt;&lt;span style=&quot;color: rgb(240, 240, 240);&quot;&gt;Deque&lt;/span&gt;" style="rounded=0;whiteSpace=wrap;html=1;fillColor=#008a00;fontColor=#ffffff;strokeColor=#005700;" parent="1" vertex="1"><mxGeometry x="230" y="450" width="120" height="30" as="geometry"/></mxCell><mxCell id="19" value="SortedSet" style="rounded=0;whiteSpace=wrap;html=1;fillColor=#0000FF;" parent="1" vertex="1"><mxGeometry x="425" y="400.00000000000006" width="120" height="30" as="geometry"/></mxCell><mxCell id="20" value="TreeSet" style="rounded=0;whiteSpace=wrap;html=1;fillColor=#008a00;fontColor=#ffffff;strokeColor=#005700;" parent="1" vertex="1"><mxGeometry x="425" y="480" width="125" height="30" as="geometry"/></mxCell><mxCell id="21" value="" style="endArrow=block;dashed=1;endFill=0;endSize=12;html=1;rounded=0;entryX=0.75;entryY=1;entryDx=0;entryDy=0;" parent="1" target="5" edge="1"><mxGeometry width="160" relative="1" as="geometry"><mxPoint x="330" y="240" as="sourcePoint"/><mxPoint x="540" y="370" as="targetPoint"/></mxGeometry></mxCell><mxCell id="22" value="" style="endArrow=classic;html=1;rounded=0;entryX=0.25;entryY=1;entryDx=0;entryDy=0;exitX=0.25;exitY=0;exitDx=0;exitDy=0;" parent="1" source="19" target="6" edge="1"><mxGeometry width="50" height="50" relative="1" as="geometry"><mxPoint x="450" y="270" as="sourcePoint"/><mxPoint x="500" y="220" as="targetPoint"/></mxGeometry></mxCell><mxCell id="23" value="" style="endArrow=block;dashed=1;endFill=0;endSize=12;html=1;rounded=0;entryX=0.625;entryY=1;entryDx=0;entryDy=0;entryPerimeter=0;exitX=0;exitY=0.75;exitDx=0;exitDy=0;" parent="1" source="12" target="6" edge="1"><mxGeometry width="160" relative="1" as="geometry"><mxPoint x="500" y="340" as="sourcePoint"/><mxPoint x="660" y="280" as="targetPoint"/><Array as="points"><mxPoint x="500" y="343"/></Array></mxGeometry></mxCell><mxCell id="24" value="" style="endArrow=none;dashed=1;html=1;dashPattern=1 3;strokeWidth=2;rounded=0;entryX=0;entryY=0.5;entryDx=0;entryDy=0;" parent="1" target="11" edge="1"><mxGeometry width="50" height="50" relative="1" as="geometry"><mxPoint x="500" y="245" as="sourcePoint"/><mxPoint x="610" y="350" as="targetPoint"/><Array as="points"/></mxGeometry></mxCell><mxCell id="25" value="" style="endArrow=block;dashed=1;endFill=0;endSize=12;html=1;rounded=0;entryX=0.25;entryY=1;entryDx=0;entryDy=0;exitX=0.25;exitY=0;exitDx=0;exitDy=0;" parent="1" source="20" target="19" edge="1"><mxGeometry width="160" relative="1" as="geometry"><mxPoint x="440" y="540" as="sourcePoint"/><mxPoint x="600" y="540" as="targetPoint"/></mxGeometry></mxCell><mxCell id="26" value="" style="endArrow=classic;html=1;rounded=0;exitX=0.5;exitY=0;exitDx=0;exitDy=0;entryX=0.5;entryY=1;entryDx=0;entryDy=0;" parent="1" source="17" target="16" edge="1"><mxGeometry width="50" height="50" relative="1" as="geometry"><mxPoint x="70" y="510" as="sourcePoint"/><mxPoint x="100" y="480" as="targetPoint"/></mxGeometry></mxCell><mxCell id="27" value="" style="endArrow=block;dashed=1;endFill=0;endSize=12;html=1;rounded=0;entryX=0.123;entryY=1.14;entryDx=0;entryDy=0;entryPerimeter=0;" parent="1" target="4" edge="1"><mxGeometry width="160" relative="1" as="geometry"><mxPoint x="36" y="440" as="sourcePoint"/><mxPoint x="170" y="250" as="targetPoint"/></mxGeometry></mxCell><mxCell id="28" value="" style="endArrow=none;dashed=1;html=1;dashPattern=1 3;strokeWidth=2;rounded=0;entryX=0;entryY=0.5;entryDx=0;entryDy=0;" parent="1" target="13" edge="1"><mxGeometry width="50" height="50" relative="1" as="geometry"><mxPoint x="40" y="285" as="sourcePoint"/><mxPoint x="110" y="310" as="targetPoint"/></mxGeometry></mxCell><mxCell id="29" value="" style="endArrow=none;dashed=1;html=1;dashPattern=1 3;strokeWidth=2;rounded=0;entryX=0;entryY=0.5;entryDx=0;entryDy=0;" parent="1" target="15" edge="1"><mxGeometry width="50" height="50" relative="1" as="geometry"><mxPoint x="40" y="375" as="sourcePoint"/><mxPoint x="440" y="370" as="targetPoint"/></mxGeometry></mxCell><mxCell id="31" value="" style="endArrow=none;dashed=1;html=1;dashPattern=1 3;strokeWidth=2;rounded=0;" parent="1" edge="1"><mxGeometry width="50" height="50" relative="1" as="geometry"><mxPoint x="40" y="440" as="sourcePoint"/><mxPoint x="60" y="440" as="targetPoint"/></mxGeometry></mxCell><mxCell id="32" value="" style="endArrow=block;dashed=1;endFill=0;endSize=12;html=1;rounded=0;entryX=0.155;entryY=1.04;entryDx=0;entryDy=0;entryPerimeter=0;exitX=0.25;exitY=0;exitDx=0;exitDy=0;" parent="1" source="18" target="14" edge="1"><mxGeometry width="160" relative="1" as="geometry"><mxPoint x="150" y="410" as="sourcePoint"/><mxPoint x="310" y="410" as="targetPoint"/></mxGeometry></mxCell><mxCell id="33" value="" style="endArrow=none;dashed=1;html=1;dashPattern=1 3;strokeWidth=2;rounded=0;exitX=1;exitY=0.5;exitDx=0;exitDy=0;" parent="1" source="15" edge="1"><mxGeometry width="50" height="50" relative="1" as="geometry"><mxPoint x="390" y="420" as="sourcePoint"/><mxPoint x="260" y="375" as="targetPoint"/></mxGeometry></mxCell><mxCell id="34" value="" style="endArrow=classic;html=1;rounded=0;exitX=0.163;exitY=-0.093;exitDx=0;exitDy=0;exitPerimeter=0;entryX=0.167;entryY=1;entryDx=0;entryDy=0;entryPerimeter=0;" parent="1" source="14" target="5" edge="1"><mxGeometry width="50" height="50" relative="1" as="geometry"><mxPoint x="230" y="650" as="sourcePoint"/><mxPoint x="280" y="580" as="targetPoint"/></mxGeometry></mxCell><mxCell id="35" value="Map" style="rounded=0;whiteSpace=wrap;html=1;fillColor=#0000FF;" parent="1" vertex="1"><mxGeometry x="680" y="160.00000000000006" width="120" height="30" as="geometry"/></mxCell><mxCell id="36" value="HashMap" style="rounded=0;whiteSpace=wrap;html=1;fillColor=#008a00;fontColor=#ffffff;strokeColor=#005700;" parent="1" vertex="1"><mxGeometry x="720" y="210" width="120" height="30" as="geometry"/></mxCell><mxCell id="37" value="LinkedHashMap" style="rounded=0;whiteSpace=wrap;html=1;fillColor=#008a00;fontColor=#ffffff;strokeColor=#005700;" parent="1" vertex="1"><mxGeometry x="720" y="270" width="120" height="30" as="geometry"/></mxCell><mxCell id="38" value="TreeMap" style="rounded=0;whiteSpace=wrap;html=1;fillColor=#008a00;fontColor=#ffffff;strokeColor=#005700;" parent="1" vertex="1"><mxGeometry x="720" y="330" width="120" height="30" as="geometry"/></mxCell><mxCell id="39" value="" style="endArrow=block;dashed=1;endFill=0;endSize=12;html=1;rounded=0;entryX=0.083;entryY=1;entryDx=0;entryDy=0;entryPerimeter=0;exitX=0;exitY=0.5;exitDx=0;exitDy=0;" parent="1" source="38" target="35" edge="1"><mxGeometry width="160" relative="1" as="geometry"><mxPoint x="640" y="430" as="sourcePoint"/><mxPoint x="800" y="430" as="targetPoint"/><Array as="points"><mxPoint x="690" y="345"/></Array></mxGeometry></mxCell><mxCell id="40" value="" style="endArrow=none;dashed=1;html=1;rounded=0;entryX=0;entryY=0.5;entryDx=0;entryDy=0;" parent="1" target="36" edge="1"><mxGeometry width="50" height="50" relative="1" as="geometry"><mxPoint x="690" y="225" as="sourcePoint"/><mxPoint x="740" y="390" as="targetPoint"/></mxGeometry></mxCell><mxCell id="42" value="" style="endArrow=none;dashed=1;html=1;rounded=0;entryX=0;entryY=0.5;entryDx=0;entryDy=0;" parent="1" target="37" edge="1"><mxGeometry width="50" height="50" relative="1" as="geometry"><mxPoint x="690" y="285" as="sourcePoint"/><mxPoint x="760" y="430" as="targetPoint"/></mxGeometry></mxCell></root></mxGraphModel></diagram></mxfile>